<svg xmlns="http://www.w3.org/2000/svg" xmlns:xlink="http://www.w3.org/1999/xlink" width="665" height="1430" viewBox="0 0 665 1430">
  <defs>
    <clipPath id="clip-path">
      <rect id="Прямоугольник_16" data-name="Прямоугольник 16" width="665" height="1430" rx="80" transform="translate(975 1221)" fill="#fff"/>
    </clipPath>
  </defs>
  <g id="Группа_масок_1" data-name="Группа масок 1" transform="translate(-975 -1221)" clip-path="url(#clip-path)">
    <g id="Сгруппировать_8" data-name="Сгруппировать 8" transform="matrix(-0.574, 0.819, -0.819, -0.574, 3964.897, 2525.493)">
      <rect id="Прямоугольник_15" data-name="Прямоугольник 15" width="669.328" height="526.844" transform="translate(1344.435 1809)" fill="#006b3f"/>
      <path id="Контур_1463" data-name="Контур 1463" d="M0,0H543.328V345.844H0Z" transform="translate(1344.435 2356.844)" fill="#fcd116"/>
      <rect id="Прямоугольник_11" data-name="Прямоугольник 11" width="279.074" height="1217.689" transform="translate(1040 1741)" fill="#3e3e3e" opacity="0.1"/>
      <rect id="Прямоугольник_12" data-name="Прямоугольник 12" width="50.722" height="919.689" transform="translate(1319.074 1826)" fill="#3e3e3e"/>
      <rect id="Прямоугольник_13" data-name="Прямоугольник 13" width="50.722" height="538.689" transform="translate(1858.429 2327.146) rotate(90)" fill="#3e3e3e"/>
      <path id="Контур_1389" data-name="Контур 1389" d="M29887.115,26244.613l-7.791,28.031-11.824-2.74-11.832-2.736,3.068-10.646c3-10.439,3.205-10.621,10.205-9.248,6.658,1.3,7.045,1.83,5.678,7.656-1.7,7.238-7.633,8.613-6.275,1.455.521-2.766-.068-4.17-1.426-3.387-1.277.74-2.7,3.375-3.174,5.852-.654,3.43.666,4.813,5.479,5.76,5.936,1.162,6.5.609,8.949-8.619l2.613-9.857-10.77-2.426-10.77-2.432-7.613,26.436-13.5-3.18-12.984-3.059-3.869-6.705,12.941,3.047,13.541,3.191,7.637-26.516,16.193,3.857s10.336,2.465,13.807,3.287l2.385.574Z" transform="translate(7596.66 41602.363) rotate(-140)" fill="#fcd116"/>
      <path id="Контур_1390" data-name="Контур 1390" d="M29887.115,26244.613l-7.791,28.031-11.824-2.74-11.832-2.736,3.068-10.646c3-10.439,3.205-10.621,10.205-9.248,6.658,1.3,7.045,1.83,5.678,7.656-1.7,7.238-7.633,8.613-6.275,1.455.521-2.766-.068-4.17-1.426-3.387-1.277.74-2.7,3.375-3.174,5.852-.654,3.43.666,4.813,5.479,5.76,5.936,1.162,6.5.609,8.949-8.619l2.613-9.857-10.77-2.426-10.77-2.432-7.613,26.436-13.5-3.18-12.984-3.059-3.869-6.705,12.941,3.047,13.541,3.191,7.637-26.516,16.193,3.857s10.336,2.465,13.807,3.287l2.385.574Z" transform="translate(7549.718 41599.828) rotate(-140)" fill="#f6f6f7"/>
      <path id="Контур_1391" data-name="Контур 1391" d="M29887.115,26244.613l-7.791,28.031-11.824-2.74-11.832-2.736,3.068-10.646c3-10.439,3.205-10.621,10.205-9.248,6.658,1.3,7.045,1.83,5.678,7.656-1.7,7.238-7.633,8.613-6.275,1.455.521-2.766-.068-4.17-1.426-3.387-1.277.74-2.7,3.375-3.174,5.852-.654,3.43.666,4.813,5.479,5.76,5.936,1.162,6.5.609,8.949-8.619l2.613-9.857-10.77-2.426-10.77-2.432-7.613,26.436-13.5-3.18-12.984-3.059-3.869-6.705,12.941,3.047,13.541,3.191,7.637-26.516,16.193,3.857s10.336,2.465,13.807,3.287l2.385.574Z" transform="translate(7503.349 41598.117) rotate(-140)" fill="#fcd116"/>
      <path id="Контур_1392" data-name="Контур 1392" d="M29887.115,26244.613l-7.791,28.031-11.824-2.74-11.832-2.736,3.068-10.646c3-10.439,3.205-10.621,10.205-9.248,6.658,1.3,7.045,1.83,5.678,7.656-1.7,7.238-7.633,8.613-6.275,1.455.521-2.766-.068-4.17-1.426-3.387-1.277.74-2.7,3.375-3.174,5.852-.654,3.43.666,4.813,5.479,5.76,5.936,1.162,6.5.609,8.949-8.619l2.613-9.857-10.77-2.426-10.77-2.432-7.613,26.436-13.5-3.18-12.984-3.059-3.869-6.705,12.941,3.047,13.541,3.191,7.637-26.516,16.193,3.857s10.336,2.465,13.807,3.287l2.385.574Z" transform="translate(7456.98 41596.402) rotate(-140)" fill="#f6f6f7"/>
      <path id="Контур_1393" data-name="Контур 1393" d="M29887.115,26244.613l-7.791,28.031-11.824-2.74-11.832-2.736,3.068-10.646c3-10.439,3.205-10.621,10.205-9.248,6.658,1.3,7.045,1.83,5.678,7.656-1.7,7.238-7.633,8.613-6.275,1.455.521-2.766-.068-4.17-1.426-3.387-1.277.74-2.7,3.375-3.174,5.852-.654,3.43.666,4.813,5.479,5.76,5.936,1.162,6.5.609,8.949-8.619l2.613-9.857-10.77-2.426-10.77-2.432-7.613,26.436-13.5-3.18-12.984-3.059-3.869-6.705,12.941,3.047,13.541,3.191,7.637-26.516,16.193,3.857s10.336,2.465,13.807,3.287l2.385.574Z" transform="translate(7410.038 41593.867) rotate(-140)" fill="#fcd116"/>
      <path id="Контур_1394" data-name="Контур 1394" d="M1.891,6.711A3.668,3.668,0,0,0,6.9,5.471,3.659,3.659,0,0,0,5.47.513,3.657,3.657,0,0,0,.462,1.753,3.657,3.657,0,0,0,1.891,6.711Z" transform="translate(1404.412 2245.345) rotate(60)" fill="#4deeff"/>
      <path id="Контур_1395" data-name="Контур 1395" d="M1.887,6.708a3.657,3.657,0,0,0,5-1.235A3.659,3.659,0,0,0,5.47.514,3.654,3.654,0,0,0,.463,1.75,3.657,3.657,0,0,0,1.887,6.708Z" transform="translate(1404.412 2200.766) rotate(60)" fill="#4deeff"/>
      <path id="Контур_1396" data-name="Контур 1396" d="M6.607,16.961c1.334,4.63,3.049,5.619,7.72,4.457s4.293-2.483-1.711-5.951S5.273,12.332,6.607,16.961ZM1.707,19.5C-.05,14.375-.53,8.519.64,6.487S7.124,1.948,12.448.9C21.781-.925,22.232-.667,25.315,8.334c1.761,5.126,2.237,10.987,1.063,13.015s-6.481,4.543-11.8,5.586C5.241,28.761,4.789,28.5,1.707,19.5Z" transform="translate(1406.639 2209.386) rotate(60)" fill="#f6f6f7"/>
      <path id="Контур_1397" data-name="Контур 1397" d="M1.887,6.708a3.657,3.657,0,0,0,5-1.235A3.659,3.659,0,0,0,5.47.514,3.654,3.654,0,0,0,.463,1.75,3.657,3.657,0,0,0,1.887,6.708Z" transform="translate(1405.88 2155.79) rotate(60)" fill="#4deeff"/>
      <path id="Контур_1398" data-name="Контур 1398" d="M6.607,16.961c1.334,4.63,3.049,5.619,7.72,4.457s4.293-2.483-1.711-5.951S5.273,12.332,6.607,16.961ZM1.707,19.5C-.05,14.375-.53,8.519.64,6.487S7.124,1.948,12.448.9C21.781-.925,22.232-.667,25.315,8.334c1.761,5.126,2.237,10.987,1.063,13.015s-6.481,4.543-11.8,5.586C5.241,28.761,4.789,28.5,1.707,19.5Z" transform="translate(1408.107 2164.41) rotate(60)" fill="#fcd116"/>
      <path id="Контур_1399" data-name="Контур 1399" d="M1.887,6.708a3.657,3.657,0,0,0,5-1.235A3.659,3.659,0,0,0,5.47.514,3.654,3.654,0,0,0,.463,1.75,3.657,3.657,0,0,0,1.887,6.708Z" transform="translate(1407.349 2110.814) rotate(60)" fill="#4deeff"/>
      <path id="Контур_1400" data-name="Контур 1400" d="M6.607,16.961c1.334,4.63,3.049,5.619,7.72,4.457s4.293-2.483-1.711-5.951S5.273,12.332,6.607,16.961ZM1.707,19.5C-.05,14.375-.53,8.519.64,6.487S7.124,1.948,12.448.9C21.781-.925,22.232-.667,25.315,8.334c1.761,5.126,2.237,10.987,1.063,13.015s-6.481,4.543-11.8,5.586C5.241,28.761,4.789,28.5,1.707,19.5Z" transform="translate(1409.576 2119.434) rotate(60)" fill="#f6f6f7"/>
      <path id="Контур_1401" data-name="Контур 1401" d="M1.887,6.708a3.657,3.657,0,0,0,5-1.235A3.659,3.659,0,0,0,5.47.514,3.654,3.654,0,0,0,.463,1.75,3.657,3.657,0,0,0,1.887,6.708Z" transform="translate(1406.503 2066.02) rotate(60)" fill="#4deeff"/>
      <path id="Контур_1402" data-name="Контур 1402" d="M6.607,16.961c1.334,4.63,3.049,5.619,7.72,4.457s4.293-2.483-1.711-5.951S5.273,12.332,6.607,16.961ZM1.707,19.5C-.05,14.375-.53,8.519.64,6.487S7.124,1.948,12.448.9C21.781-.925,22.232-.667,25.315,8.334c1.761,5.126,2.237,10.987,1.063,13.015s-6.481,4.543-11.8,5.586C5.241,28.761,4.789,28.5,1.707,19.5Z" transform="translate(1408.73 2074.64) rotate(60)" fill="#fcd116"/>
      <path id="Контур_1403" data-name="Контур 1403" d="M1.887,6.708a3.657,3.657,0,0,0,5-1.235A3.659,3.659,0,0,0,5.47.514,3.654,3.654,0,0,0,.463,1.75,3.657,3.657,0,0,0,1.887,6.708Z" transform="translate(1405.186 2020.553) rotate(60)" fill="#4deeff"/>
      <path id="Контур_1404" data-name="Контур 1404" d="M6.607,16.961c1.334,4.63,3.049,5.619,7.72,4.457s4.293-2.483-1.711-5.951S5.273,12.332,6.607,16.961ZM1.707,19.5C-.05,14.375-.53,8.519.64,6.487S7.124,1.948,12.448.9C21.781-.925,22.232-.667,25.315,8.334c1.761,5.126,2.237,10.987,1.063,13.015s-6.481,4.543-11.8,5.586C5.241,28.761,4.789,28.5,1.707,19.5Z" transform="translate(1407.413 2029.172) rotate(60)" fill="#f6f6f7"/>
      <path id="Контур_1405" data-name="Контур 1405" d="M1.887,6.708a3.657,3.657,0,0,0,5-1.235A3.659,3.659,0,0,0,5.47.514,3.654,3.654,0,0,0,.463,1.75,3.657,3.657,0,0,0,1.887,6.708Z" transform="translate(1404.443 1975.905) rotate(60)" fill="#4deeff"/>
      <path id="Контур_1406" data-name="Контур 1406" d="M6.607,16.961c1.334,4.63,3.049,5.619,7.72,4.457s4.293-2.483-1.711-5.951S5.273,12.332,6.607,16.961ZM1.707,19.5C-.05,14.375-.53,8.519.64,6.487S7.124,1.948,12.448.9C21.781-.925,22.232-.667,25.315,8.334c1.761,5.126,2.237,10.987,1.063,13.015s-6.481,4.543-11.8,5.586C5.241,28.761,4.789,28.5,1.707,19.5Z" transform="translate(1406.669 1984.524) rotate(60)" fill="#fcd116"/>
      <path id="Контур_1407" data-name="Контур 1407" d="M29887.115,26244.613l-7.791,28.031-11.824-2.74-11.832-2.736,3.068-10.646c3-10.439,3.205-10.621,10.205-9.248,6.658,1.3,7.045,1.83,5.678,7.656-1.7,7.238-7.633,8.613-6.275,1.455.521-2.766-.068-4.17-1.426-3.387-1.277.74-2.7,3.375-3.174,5.852-.654,3.43.666,4.813,5.479,5.76,5.936,1.162,6.5.609,8.949-8.619l2.613-9.857-10.77-2.426-10.77-2.432-7.613,26.436-13.5-3.18-12.984-3.059-3.869-6.705,12.941,3.047,13.541,3.191,7.637-26.516,16.193,3.857s10.336,2.465,13.807,3.287l2.385.574Z" transform="translate(7645.242 41603.75) rotate(-140)" fill="#f6f6f7"/>
      <g id="Сгруппировать_15" data-name="Сгруппировать 15" transform="matrix(-0.574, -0.819, 0.819, -0.574, 349.499, 4504.693)">
        <g id="Сгруппировать_11" data-name="Сгруппировать 11">
          <path id="Контур_505" data-name="Контур 505" d="M-997.543,30113.018c-8.392,5.4-9.32,5.219-14.553-2.852s-5.017-8.982,3.376-14.381,9.32-5.219,14.552,2.852S-989.151,30107.619-997.543,30113.018Zm4.168,7.668,16.912-10.107-19.513-32.568-33.823,20.215,19.513,32.568Z" transform="translate(28823.588 -9750.723) rotate(65)" fill="#a92fff"/>
          <path id="Контур_506" data-name="Контур 506" d="M796.206,31894.795a4.606,4.606,0,0,1,.307-6.561,4.794,4.794,0,0,1,6.675.09,4.606,4.606,0,0,1-.307,6.561A4.792,4.792,0,0,1,796.206,31894.795Z" transform="translate(29681.395 -12139.929) rotate(65)" fill="#ce1126"/>
          <path id="Контур_1379" data-name="Контур 1379" d="M-997.543,30113.018c-8.392,5.4-9.32,5.219-14.553-2.852s-5.017-8.982,3.376-14.381,9.32-5.219,14.552,2.852S-989.151,30107.619-997.543,30113.018Zm4.168,7.668,16.912-10.107-19.513-32.568-33.823,20.215,19.513,32.568Z" transform="translate(28786.607 -9775.723) rotate(65)" fill="#f6f6f7"/>
          <path id="Контур_1380" data-name="Контур 1380" d="M796.206,31894.795a4.606,4.606,0,0,1,.307-6.561,4.794,4.794,0,0,1,6.675.09,4.606,4.606,0,0,1-.307,6.561A4.792,4.792,0,0,1,796.206,31894.795Z" transform="translate(29644.414 -12164.929) rotate(65)" fill="#ce1126"/>
        </g>
        <g id="Сгруппировать_10" data-name="Сгруппировать 10" transform="translate(1 -1)">
          <path id="Контур_1381" data-name="Контур 1381" d="M-997.543,30113.018c-8.392,5.4-9.32,5.219-14.553-2.852s-5.017-8.982,3.376-14.381,9.32-5.219,14.552,2.852S-989.151,30107.619-997.543,30113.018Zm4.168,7.668,16.912-10.107-19.513-32.568-33.823,20.215,19.513,32.568Z" transform="translate(28749.588 -9800.723) rotate(65)" fill="#a92fff"/>
          <path id="Контур_1382" data-name="Контур 1382" d="M796.206,31894.795a4.606,4.606,0,0,1,.307-6.561,4.794,4.794,0,0,1,6.675.09,4.606,4.606,0,0,1-.307,6.561A4.792,4.792,0,0,1,796.206,31894.795Z" transform="translate(29607.395 -12189.929) rotate(65)" fill="#ce1126"/>
          <path id="Контур_1383" data-name="Контур 1383" d="M-997.543,30113.018c-8.392,5.4-9.32,5.219-14.553-2.852s-5.017-8.982,3.376-14.381,9.32-5.219,14.552,2.852S-989.151,30107.619-997.543,30113.018Zm4.168,7.668,16.912-10.107-19.513-32.568-33.823,20.215,19.513,32.568Z" transform="translate(28712.607 -9825.723) rotate(65)" fill="#f6f6f7"/>
          <path id="Контур_1384" data-name="Контур 1384" d="M796.206,31894.795a4.606,4.606,0,0,1,.307-6.561,4.794,4.794,0,0,1,6.675.09,4.606,4.606,0,0,1-.307,6.561A4.792,4.792,0,0,1,796.206,31894.795Z" transform="translate(29570.414 -12214.929) rotate(65)" fill="#ce1126"/>
        </g>
        <g id="Сгруппировать_9" data-name="Сгруппировать 9" transform="translate(1 -2)">
          <path id="Контур_1385" data-name="Контур 1385" d="M-997.543,30113.018c-8.392,5.4-9.32,5.219-14.553-2.852s-5.017-8.982,3.376-14.381,9.32-5.219,14.552,2.852S-989.151,30107.619-997.543,30113.018Zm4.168,7.668,16.912-10.107-19.513-32.568-33.823,20.215,19.513,32.568Z" transform="translate(28675.588 -9849.723) rotate(65)" fill="#a92fff"/>
          <path id="Контур_1386" data-name="Контур 1386" d="M796.206,31894.795a4.606,4.606,0,0,1,.307-6.561,4.794,4.794,0,0,1,6.675.09,4.606,4.606,0,0,1-.307,6.561A4.792,4.792,0,0,1,796.206,31894.795Z" transform="translate(29533.395 -12238.929) rotate(65)" fill="#ce1126"/>
          <path id="Контур_1387" data-name="Контур 1387" d="M-997.543,30113.018c-8.392,5.4-9.32,5.219-14.553-2.852s-5.017-8.982,3.376-14.381,9.32-5.219,14.552,2.852S-989.151,30107.619-997.543,30113.018Zm4.168,7.668,16.912-10.107-19.513-32.568-33.823,20.215,19.513,32.568Z" transform="translate(28638.607 -9874.723) rotate(65)" fill="#f6f6f7"/>
          <path id="Контур_1388" data-name="Контур 1388" d="M796.206,31894.795a4.606,4.606,0,0,1,.307-6.561,4.794,4.794,0,0,1,6.675.09,4.606,4.606,0,0,1-.307,6.561A4.792,4.792,0,0,1,796.206,31894.795Z" transform="translate(29496.414 -12263.929) rotate(65)" fill="#ce1126"/>
        </g>
        <g id="Сгруппировать_18" data-name="Сгруппировать 18" transform="translate(-73 -52)">
          <path id="Контур_1385-2" data-name="Контур 1385" d="M-997.543,30113.018c-8.392,5.4-9.32,5.219-14.553-2.852s-5.017-8.982,3.376-14.381,9.32-5.219,14.552,2.852S-989.151,30107.619-997.543,30113.018Zm4.168,7.668,16.912-10.107-19.513-32.568-33.823,20.215,19.513,32.568Z" transform="translate(28675.588 -9849.723) rotate(65)" fill="#a92fff"/>
          <path id="Контур_1386-2" data-name="Контур 1386" d="M796.206,31894.795a4.606,4.606,0,0,1,.307-6.561,4.794,4.794,0,0,1,6.675.09,4.606,4.606,0,0,1-.307,6.561A4.792,4.792,0,0,1,796.206,31894.795Z" transform="translate(29533.395 -12238.929) rotate(65)" fill="#ce1126"/>
          <path id="Контур_1387-2" data-name="Контур 1387" d="M-997.543,30113.018c-8.392,5.4-9.32,5.219-14.553-2.852s-5.017-8.982,3.376-14.381,9.32-5.219,14.552,2.852S-989.151,30107.619-997.543,30113.018Zm4.168,7.668,16.912-10.107-19.513-32.568-33.823,20.215,19.513,32.568Z" transform="translate(28638.607 -9874.723) rotate(65)" fill="#f6f6f7"/>
          <path id="Контур_1388-2" data-name="Контур 1388" d="M796.206,31894.795a4.606,4.606,0,0,1,.307-6.561,4.794,4.794,0,0,1,6.675.09,4.606,4.606,0,0,1-.307,6.561A4.792,4.792,0,0,1,796.206,31894.795Z" transform="translate(29496.414 -12263.929) rotate(65)" fill="#4deeff"/>
        </g>
      </g>
      <g id="Сгруппировать_16" data-name="Сгруппировать 16" transform="matrix(-0.839, 0.545, -0.545, -0.839, 1715.204, 2422.519)">
        <g id="Сгруппировать_11-2" data-name="Сгруппировать 11" transform="translate(0 0)">
          <path id="Контур_505-2" data-name="Контур 505" d="M32.257,35.008c-8.392,5.4-9.32,5.219-14.553-2.852s-5.017-8.982,3.376-14.381,9.32-5.219,14.552,2.852S40.649,29.609,32.257,35.008Zm4.168,7.668L53.336,32.568,33.823,0,0,20.215,19.513,52.783Z" transform="translate(22.541 70.646) rotate(-115)" fill="#a92fff"/>
          <path id="Контур_506-2" data-name="Контур 506" d="M1.228,7.868a4.606,4.606,0,0,1,.307-6.561A4.794,4.794,0,0,1,8.21,1.4,4.606,4.606,0,0,1,7.9,7.958,4.792,4.792,0,0,1,1.228,7.868Z" transform="translate(32.986 41.561) rotate(-115)" fill="#ce1126"/>
          <path id="Контур_1379-2" data-name="Контур 1379" d="M32.257,35.008c-8.392,5.4-9.32,5.219-14.553-2.852s-5.017-8.982,3.376-14.381,9.32-5.219,14.552,2.852S40.649,29.609,32.257,35.008Zm4.168,7.668L53.336,32.568,33.823,0,0,20.215,19.513,52.783Z" transform="translate(59.521 95.646) rotate(-115)" fill="#f6f6f7"/>
          <path id="Контур_1380-2" data-name="Контур 1380" d="M1.228,7.868a4.606,4.606,0,0,1,.307-6.561A4.794,4.794,0,0,1,8.21,1.4,4.606,4.606,0,0,1,7.9,7.958,4.792,4.792,0,0,1,1.228,7.868Z" transform="translate(69.966 66.561) rotate(-115)" fill="#ce1126"/>
        </g>
        <g id="Сгруппировать_10-2" data-name="Сгруппировать 10" transform="translate(74 50)">
          <path id="Контур_1381-2" data-name="Контур 1381" d="M32.257,35.008c-8.392,5.4-9.32,5.219-14.553-2.852s-5.017-8.982,3.376-14.381,9.32-5.219,14.552,2.852S40.649,29.609,32.257,35.008Zm4.168,7.668L53.336,32.568,33.823,0,0,20.215,19.513,52.783Z" transform="translate(22.541 70.646) rotate(-115)" fill="#a92fff"/>
          <path id="Контур_1382-2" data-name="Контур 1382" d="M1.228,7.868a4.606,4.606,0,0,1,.307-6.561A4.794,4.794,0,0,1,8.21,1.4,4.606,4.606,0,0,1,7.9,7.958,4.792,4.792,0,0,1,1.228,7.868Z" transform="translate(32.986 41.561) rotate(-115)" fill="#ce1126"/>
          <path id="Контур_1383-2" data-name="Контур 1383" d="M32.257,35.008c-8.392,5.4-9.32,5.219-14.553-2.852s-5.017-8.982,3.376-14.381,9.32-5.219,14.552,2.852S40.649,29.609,32.257,35.008Zm4.168,7.668L53.336,32.568,33.823,0,0,20.215,19.513,52.783Z" transform="translate(59.521 95.646) rotate(-115)" fill="#f6f6f7"/>
          <path id="Контур_1384-2" data-name="Контур 1384" d="M1.228,7.868a4.606,4.606,0,0,1,.307-6.561A4.794,4.794,0,0,1,8.21,1.4,4.606,4.606,0,0,1,7.9,7.958,4.792,4.792,0,0,1,1.228,7.868Z" transform="translate(69.966 66.561) rotate(-115)" fill="#ce1126"/>
        </g>
        <g id="Сгруппировать_9-2" data-name="Сгруппировать 9" transform="translate(148 99)">
          <path id="Контур_1385-3" data-name="Контур 1385" d="M32.257,35.008c-8.392,5.4-9.32,5.219-14.553-2.852s-5.017-8.982,3.376-14.381,9.32-5.219,14.552,2.852S40.649,29.609,32.257,35.008Zm4.168,7.668L53.336,32.568,33.823,0,0,20.215,19.513,52.783Z" transform="translate(22.541 70.646) rotate(-115)" fill="#a92fff"/>
          <path id="Контур_1386-3" data-name="Контур 1386" d="M1.228,7.868a4.606,4.606,0,0,1,.307-6.561A4.794,4.794,0,0,1,8.21,1.4,4.606,4.606,0,0,1,7.9,7.958,4.792,4.792,0,0,1,1.228,7.868Z" transform="translate(32.986 41.561) rotate(-115)" fill="#ce1126"/>
          <path id="Контур_1387-3" data-name="Контур 1387" d="M32.257,35.008c-8.392,5.4-9.32,5.219-14.553-2.852s-5.017-8.982,3.376-14.381,9.32-5.219,14.552,2.852S40.649,29.609,32.257,35.008Zm4.168,7.668L53.336,32.568,33.823,0,0,20.215,19.513,52.783Z" transform="translate(59.521 95.646) rotate(-115)" fill="#f6f6f7"/>
          <path id="Контур_1388-3" data-name="Контур 1388" d="M1.228,7.868a4.606,4.606,0,0,1,.307-6.561A4.794,4.794,0,0,1,8.21,1.4,4.606,4.606,0,0,1,7.9,7.958,4.792,4.792,0,0,1,1.228,7.868Z" transform="translate(69.966 66.561) rotate(-115)" fill="#ce1126"/>
        </g>
        <g id="Сгруппировать_17" data-name="Сгруппировать 17" transform="translate(-75.839 -51.385)">
          <path id="Контур_505-3" data-name="Контур 505" d="M32.257,35.008c-8.392,5.4-9.32,5.219-14.553-2.852s-5.017-8.982,3.376-14.381,9.32-5.219,14.552,2.852S40.649,29.609,32.257,35.008Zm4.168,7.668L53.336,32.568,33.823,0,0,20.215,19.513,52.783Z" transform="translate(22.541 70.646) rotate(-115)" fill="#a92fff"/>
          <path id="Контур_506-3" data-name="Контур 506" d="M1.228,7.868a4.606,4.606,0,0,1,.307-6.561A4.794,4.794,0,0,1,8.21,1.4,4.606,4.606,0,0,1,7.9,7.958,4.792,4.792,0,0,1,1.228,7.868Z" transform="translate(32.986 41.561) rotate(-115)" fill="#ce1126"/>
          <path id="Контур_1379-3" data-name="Контур 1379" d="M32.257,35.008c-8.392,5.4-9.32,5.219-14.553-2.852s-5.017-8.982,3.376-14.381,9.32-5.219,14.552,2.852S40.649,29.609,32.257,35.008Zm4.168,7.668L53.336,32.568,33.823,0,0,20.215,19.513,52.783Z" transform="translate(59.521 95.646) rotate(-115)" fill="#f6f6f7"/>
          <path id="Контур_1380-3" data-name="Контур 1380" d="M1.228,7.868a4.606,4.606,0,0,1,.307-6.561A4.794,4.794,0,0,1,8.21,1.4,4.606,4.606,0,0,1,7.9,7.958,4.792,4.792,0,0,1,1.228,7.868Z" transform="translate(69.966 66.561) rotate(-115)" fill="#ce1126"/>
        </g>
      </g>
      <path id="Контур_1408" data-name="Контур 1408" d="M29887.115,26244.613l-7.791,28.031-11.824-2.74-11.832-2.736,3.068-10.646c3-10.439,3.205-10.621,10.205-9.248,6.658,1.3,7.045,1.83,5.678,7.656-1.7,7.238-7.633,8.613-6.275,1.455.521-2.766-.068-4.17-1.426-3.387-1.277.74-2.7,3.375-3.174,5.852-.654,3.43.666,4.813,5.479,5.76,5.936,1.162,6.5.609,8.949-8.619l2.613-9.857-10.77-2.426-10.77-2.432-7.613,26.436-13.5-3.18-12.984-3.059-3.869-6.705,12.941,3.047,13.541,3.191,7.637-26.516,16.193,3.857s10.336,2.465,13.807,3.287l2.385.574Z" transform="translate(7693.82 41605.137) rotate(-140)" fill="#fcd116"/>
      <path id="Контур_1409" data-name="Контур 1409" d="M29887.115,26244.613l-7.791,28.031-11.824-2.74-11.832-2.736,3.068-10.646c3-10.439,3.205-10.621,10.205-9.248,6.658,1.3,7.045,1.83,5.678,7.656-1.7,7.238-7.633,8.613-6.275,1.455.521-2.766-.068-4.17-1.426-3.387-1.277.74-2.7,3.375-3.174,5.852-.654,3.43.666,4.813,5.479,5.76,5.936,1.162,6.5.609,8.949-8.619l2.613-9.857-10.77-2.426-10.77-2.432-7.613,26.436-13.5-3.18-12.984-3.059-3.869-6.705,12.941,3.047,13.541,3.191,7.637-26.516,16.193,3.857s10.336,2.465,13.807,3.287l2.385.574Z" transform="translate(7742.4 41606.52) rotate(-140)" fill="#f6f6f7"/>
      <path id="Контур_1410" data-name="Контур 1410" d="M1.887,6.708a3.657,3.657,0,0,0,5-1.235A3.659,3.659,0,0,0,5.47.514,3.654,3.654,0,0,0,.463,1.75,3.657,3.657,0,0,0,1.887,6.708Z" transform="translate(1406.976 1928.963) rotate(60)" fill="#4deeff"/>
      <path id="Контур_1411" data-name="Контур 1411" d="M6.607,16.961c1.334,4.63,3.049,5.619,7.72,4.457s4.293-2.483-1.711-5.951S5.273,12.332,6.607,16.961ZM1.707,19.5C-.05,14.375-.53,8.519.64,6.487S7.124,1.948,12.448.9C21.781-.925,22.232-.667,25.315,8.334c1.761,5.126,2.237,10.987,1.063,13.015s-6.481,4.543-11.8,5.586C5.241,28.761,4.789,28.5,1.707,19.5Z" transform="translate(1409.202 1937.582) rotate(60)" fill="#f6f6f7"/>
      <path id="Контур_1412" data-name="Контур 1412" d="M1.887,6.708a3.657,3.657,0,0,0,5-1.235A3.659,3.659,0,0,0,5.47.514,3.654,3.654,0,0,0,.463,1.75,3.657,3.657,0,0,0,1.887,6.708Z" transform="translate(1409.509 1882.02) rotate(60)" fill="#4deeff"/>
      <path id="Контур_1413" data-name="Контур 1413" d="M6.607,16.961c1.334,4.63,3.049,5.619,7.72,4.457s4.293-2.483-1.711-5.951S5.273,12.332,6.607,16.961ZM1.707,19.5C-.05,14.375-.53,8.519.64,6.487S7.124,1.948,12.448.9C21.781-.925,22.232-.667,25.315,8.334c1.761,5.126,2.237,10.987,1.063,13.015s-6.481,4.543-11.8,5.586C5.241,28.761,4.789,28.5,1.707,19.5Z" transform="translate(1411.735 1890.64) rotate(60)" fill="#fcd116"/>
      <line id="Линия_2" data-name="Линия 2" x1="513.74" y2="2.038" transform="translate(1344.593 2350.603)" fill="none" stroke="#4deeff" stroke-width="5"/>
      <line id="Линия_3" data-name="Линия 3" x1="0.609" y2="919.67" transform="translate(1343.583 1825.547)" fill="none" stroke="#4deeff" stroke-width="5"/>
    </g>
    <path id="Контур_1376" data-name="Контур 1376" d="M29360.426,20139.441c-71.281,163.539-92.371,161.58-196.367-18.529-104.562-181.09-95.023-201.391,93.074-197.979,115.227,2.113,203.75,10.387,196.484,18.533S29404.434,20038.768,29360.426,20139.441Z" transform="translate(-6983.579 -31858.859) rotate(42)" fill="rgba(62,62,62,0.25)"/>
  </g>
</svg>
