<svg id="Сгруппировать_46" data-name="Сгруппировать 46" xmlns="http://www.w3.org/2000/svg" width="239.996" height="80.224" viewBox="0 0 239.996 80.224">
  <g id="Сгруппировать_44" data-name="Сгруппировать 44" transform="translate(0 0)">
    <g id="Сгруппировать_42" data-name="Сгруппировать 42">
      <path id="Контур_1584" data-name="Контур 1584" d="M220.884,0H19.123c-.735,0-1.462,0-2.2,0-.614,0-1.223.016-1.843.025a26.5,26.5,0,0,0-4.019.354A13.367,13.367,0,0,0,7.253,1.642,12.911,12.911,0,0,0,4.006,4.005,12.552,12.552,0,0,0,1.643,7.257,13.239,13.239,0,0,0,.39,11.074,26.058,26.058,0,0,0,.03,15.089C.012,15.7.01,16.321,0,16.936V63.293c.01.623.012,1.226.03,1.849A26.058,26.058,0,0,0,.39,69.157a13.212,13.212,0,0,0,1.253,3.819,12.45,12.45,0,0,0,2.363,3.238,12.584,12.584,0,0,0,3.246,2.364,13.439,13.439,0,0,0,3.812,1.265,26.986,26.986,0,0,0,4.019.355c.62.014,1.229.021,1.843.021.733,0,1.46,0,2.2,0H220.884c.721,0,1.453,0,2.174,0,.611,0,1.238-.008,1.849-.021a26.632,26.632,0,0,0,4.011-.355,13.647,13.647,0,0,0,3.827-1.265,12.591,12.591,0,0,0,3.243-2.364,12.826,12.826,0,0,0,2.37-3.238,13.245,13.245,0,0,0,1.242-3.819,27.086,27.086,0,0,0,.372-4.015c.008-.623.008-1.226.008-1.849C240,62.565,240,61.84,240,61.1V19.126c0-.734,0-1.463-.016-2.19,0-.615,0-1.232-.008-1.847a27.093,27.093,0,0,0-.372-4.015,13.272,13.272,0,0,0-1.242-3.817,12.968,12.968,0,0,0-5.613-5.615A13.574,13.574,0,0,0,228.918.384a26.16,26.16,0,0,0-4.011-.355C224.3.02,223.669.008,223.058,0c-.721,0-1.453,0-2.174,0Z" transform="translate(0 0)"/>
      <path id="Контур_1585" data-name="Контур 1585" d="M16.059,77.588c-.611,0-1.207-.008-1.814-.021A25.444,25.444,0,0,1,10.5,77.24a11.8,11.8,0,0,1-3.323-1.1,10.842,10.842,0,0,1-2.8-2.039,10.671,10.671,0,0,1-2.047-2.8,11.475,11.475,0,0,1-1.089-3.324A24.9,24.9,0,0,1,.9,64.217C.89,63.794.873,62.386.873,62.386V16.056S.891,14.669.9,14.262a24.81,24.81,0,0,1,.332-3.755,11.543,11.543,0,0,1,1.09-3.333A10.777,10.777,0,0,1,4.36,4.37,11.162,11.162,0,0,1,7.173,2.319a11.679,11.679,0,0,1,3.316-1.091A25.242,25.242,0,0,1,14.25.9L16.06.875H222.171L224,.9a24.839,24.839,0,0,1,3.727.326,11.91,11.91,0,0,1,3.351,1.1,11.219,11.219,0,0,1,4.843,4.853A11.557,11.557,0,0,1,237,10.486a26.073,26.073,0,0,1,.349,3.785c.006.568.006,1.178.006,1.785.016.752.016,1.468.016,2.19V60.22c0,.729,0,1.44-.016,2.156,0,.652,0,1.25-.008,1.865A25.529,25.529,0,0,1,237,67.958a11.511,11.511,0,0,1-1.083,3.349,10.991,10.991,0,0,1-2.037,2.779,10.855,10.855,0,0,1-2.807,2.051,11.757,11.757,0,0,1-3.345,1.1,25.154,25.154,0,0,1-3.749.327c-.587.014-1.2.021-1.8.021l-2.174,0Z" transform="translate(0.878 0.88)"/>
    </g>
    <g id="_Group_" data-name="&lt;Group&gt;" transform="translate(19.999 17.489)">
      <g id="_Group_2" data-name="&lt;Group&gt;">
        <g id="_Group_3" data-name="&lt;Group&gt;">
          <path id="_Path_" data-name="&lt;Path&gt;" d="M39.649,26.664a9.925,9.925,0,0,1,4.726-8.327,10.16,10.16,0,0,0-8-4.327c-3.368-.354-6.633,2.015-8.349,2.015-1.749,0-4.392-1.98-7.237-1.922a10.66,10.66,0,0,0-8.971,5.471c-3.879,6.716-.986,16.585,2.73,22.013,1.859,2.658,4.032,5.627,6.874,5.522,2.782-.115,3.821-1.774,7.179-1.774,3.327,0,4.3,1.774,7.2,1.707,2.985-.048,4.866-2.67,6.66-5.353a21.985,21.985,0,0,0,3.045-6.2A9.591,9.591,0,0,1,39.649,26.664Z" transform="translate(-9.972 -3.438)" fill="#fff"/>
          <path id="_Path_2" data-name="&lt;Path&gt;" d="M25.3,15.721a9.772,9.772,0,0,0,2.235-7A9.943,9.943,0,0,0,21.1,12.049,9.3,9.3,0,0,0,18.81,18.79,8.221,8.221,0,0,0,25.3,15.721Z" transform="translate(-1.103 -8.72)" fill="#fff"/>
        </g>
      </g>
      <g id="Сгруппировать_43" data-name="Сгруппировать 43" transform="translate(49.048 18.353)">
        <path id="Контур_1586" data-name="Контур 1586" d="M50.221,36.252H40.728l-2.28,6.732H34.427l8.992-24.905H47.6l8.992,24.905H52.5Zm-8.51-3.106h7.525l-3.71-10.925h-.1Z" transform="translate(-34.427 -17.663)" fill="#fff"/>
        <path id="Контур_1587" data-name="Контур 1587" d="M63.736,30.619c0,5.643-3.02,9.268-7.578,9.268a6.156,6.156,0,0,1-5.713-3.177h-.086V45.7H46.631V21.539h3.608v3.02h.069a6.441,6.441,0,0,1,5.782-3.21C60.7,21.349,63.736,24.992,63.736,30.619Zm-3.831,0c0-3.676-1.9-6.093-4.8-6.093-2.848,0-4.763,2.468-4.763,6.093,0,3.659,1.915,6.109,4.763,6.109C58,36.728,59.9,34.329,59.9,30.619Z" transform="translate(-22.155 -14.377)" fill="#fff"/>
        <path id="Контур_1588" data-name="Контур 1588" d="M73.7,30.619c0,5.643-3.02,9.268-7.578,9.268A6.156,6.156,0,0,1,60.41,36.71h-.086V45.7H56.6V21.539H60.2v3.02h.069a6.441,6.441,0,0,1,5.782-3.21C70.663,21.349,73.7,24.992,73.7,30.619Zm-3.831,0c0-3.676-1.9-6.093-4.8-6.093-2.848,0-4.763,2.468-4.763,6.093,0,3.659,1.915,6.109,4.763,6.109,2.9,0,4.8-2.4,4.8-6.109Z" transform="translate(-12.135 -14.377)" fill="#fff"/>
        <path id="Контур_1589" data-name="Контур 1589" d="M73.623,36.252c.276,2.47,2.675,4.091,5.954,4.091,3.142,0,5.4-1.622,5.4-3.849,0-1.933-1.363-3.091-4.591-3.884l-3.228-.778c-4.573-1.1-6.7-3.243-6.7-6.714,0-4.3,3.745-7.249,9.062-7.249,5.263,0,8.87,2.952,8.992,7.249H84.756c-.225-2.485-2.28-3.986-5.282-3.986s-5.057,1.518-5.057,3.727c0,1.761,1.312,2.8,4.522,3.59l2.744.674c5.11,1.208,7.233,3.261,7.233,6.9,0,4.659-3.712,7.578-9.615,7.578-5.523,0-9.252-2.85-9.493-7.354Z" transform="translate(1.151 -17.871)" fill="#fff"/>
        <path id="Контур_1590" data-name="Контур 1590" d="M86.548,19.3v4.3H90v2.952H86.548v10.01c0,1.555.691,2.28,2.209,2.28a11.647,11.647,0,0,0,1.226-.086v2.934a10.236,10.236,0,0,1-2.07.172c-3.676,0-5.11-1.381-5.11-4.9V26.548h-2.64V23.6H82.8V19.3Z" transform="translate(11.563 -16.434)" fill="#fff"/>
        <path id="Контур_1591" data-name="Контур 1591" d="M86.065,30.634c0-5.713,3.365-9.3,8.612-9.3,5.265,0,8.614,3.59,8.614,9.3,0,5.729-3.332,9.3-8.614,9.3S86.065,36.363,86.065,30.634Zm13.428,0c0-3.919-1.8-6.232-4.816-6.232s-4.814,2.331-4.814,6.232c0,3.935,1.794,6.23,4.814,6.23s4.816-2.3,4.816-6.23Z" transform="translate(17.499 -14.392)" fill="#fff"/>
        <path id="Контур_1592" data-name="Контур 1592" d="M96.186,21.539h3.555V24.63h.086a4.331,4.331,0,0,1,4.368-3.281,5.748,5.748,0,0,1,1.277.139v3.486a5.21,5.21,0,0,0-1.675-.225,3.756,3.756,0,0,0-3.884,4.178V39.7H96.186Z" transform="translate(27.676 -14.377)" fill="#fff"/>
        <path id="Контур_1593" data-name="Контур 1593" d="M117.6,34.379c-.5,3.3-3.712,5.558-7.819,5.558-5.282,0-8.561-3.539-8.561-9.217,0-5.7,3.3-9.389,8.4-9.389,5.024,0,8.183,3.451,8.183,8.957v1.277H104.98v.225a4.729,4.729,0,0,0,4.885,5.143,4.108,4.108,0,0,0,4.193-2.554ZM105,28.96h9.078a4.367,4.367,0,0,0-4.454-4.609A4.6,4.6,0,0,0,105,28.96Z" transform="translate(32.736 -14.392)" fill="#fff"/>
      </g>
    </g>
  </g>
  <g id="_Group_4" data-name="&lt;Group&gt;" transform="translate(71.541 16.921)">
    <g id="Сгруппировать_45" data-name="Сгруппировать 45">
      <path id="Контур_1594" data-name="Контур 1594" d="M39.993,8.738a5.294,5.294,0,0,1,5.631,5.946c0,3.823-2.066,6.021-5.631,6.021H35.671V8.738ZM37.53,19.012h2.256a3.762,3.762,0,0,0,3.947-4.3,3.773,3.773,0,0,0-3.947-4.279H37.53Z" transform="translate(-35.671 -8.148)" fill="#fff"/>
      <path id="Контур_1595" data-name="Контур 1595" d="M41.691,14.794a4.278,4.278,0,1,1,8.518,0,4.279,4.279,0,1,1-8.518,0Zm6.685,0c0-1.958-.879-3.1-2.423-3.1s-2.421,1.145-2.421,3.1c0,1.973.872,3.109,2.421,3.109s2.423-1.144,2.423-3.109Z" transform="translate(-29.638 -6.757)" fill="#fff"/>
      <path id="Контур_1596" data-name="Контур 1596" d="M56.605,19.226H54.756L52.89,12.574h-.141L50.89,19.226H49.059l-2.489-9.031h1.808l1.618,6.891h.133l1.857-6.891h1.71l1.857,6.891h.141l1.61-6.891h1.782Z" transform="translate(-24.712 -6.669)" fill="#fff"/>
      <path id="Контур_1597" data-name="Контур 1597" d="M53.854,10.287h1.716v1.435H55.7A2.7,2.7,0,0,1,58.4,10.112a2.937,2.937,0,0,1,3.126,3.359v5.846H59.741v-5.4c0-1.451-.631-2.173-1.949-2.173a2.072,2.072,0,0,0-2.156,2.289v5.283H53.854Z" transform="translate(-17.387 -6.761)" fill="#fff"/>
      <path id="Контур_1598" data-name="Контур 1598" d="M59.094,8.437h1.782V20.993H59.094Z" transform="translate(-12.117 -8.437)" fill="#fff"/>
      <path id="Контур_1599" data-name="Контур 1599" d="M61.228,14.794a4.279,4.279,0,1,1,8.519,0,4.28,4.28,0,1,1-8.519,0Zm6.685,0c0-1.958-.879-3.1-2.423-3.1s-2.421,1.145-2.421,3.1c0,1.973.872,3.109,2.421,3.109s2.423-1.144,2.423-3.109Z" transform="translate(-9.992 -6.757)" fill="#fff"/>
      <path id="Контур_1600" data-name="Контур 1600" d="M66.4,16.759c0-1.626,1.21-2.563,3.359-2.7l2.446-.141v-.78c0-.954-.631-1.492-1.849-1.492-.995,0-1.684.365-1.882,1H66.75c.182-1.551,1.641-2.546,3.69-2.546,2.264,0,3.541,1.127,3.541,3.035v6.17H72.265V18.044h-.141a3.038,3.038,0,0,1-2.713,1.418,2.728,2.728,0,0,1-3.01-2.7Zm5.805-.772v-.755L70,15.374c-1.244.083-1.808.506-1.808,1.3,0,.813.705,1.286,1.675,1.286a2.129,2.129,0,0,0,2.338-1.974Z" transform="translate(-4.769 -6.757)" fill="#fff"/>
      <path id="Контур_1601" data-name="Контур 1601" d="M71.348,16.474c0-2.854,1.467-4.661,3.749-4.661A2.976,2.976,0,0,1,77.866,13.4H78V8.437h1.782V20.993H78.074V19.567h-.141A3.134,3.134,0,0,1,75.1,21.142C72.8,21.142,71.348,19.335,71.348,16.474Zm1.841,0c0,1.915.9,3.068,2.413,3.068s2.431-1.169,2.431-3.06-.938-3.068-2.431-3.068-2.413,1.16-2.413,3.06Z" transform="translate(0.205 -8.437)" fill="#fff"/>
      <path id="Контур_1602" data-name="Контур 1602" d="M79.24,14.794a4.278,4.278,0,1,1,8.518,0,4.279,4.279,0,1,1-8.518,0Zm6.685,0c0-1.958-.879-3.1-2.423-3.1s-2.421,1.145-2.421,3.1c0,1.973.872,3.109,2.421,3.109S85.925,16.759,85.925,14.794Z" transform="translate(8.121 -6.757)" fill="#fff"/>
      <path id="Контур_1603" data-name="Контур 1603" d="M84.669,10.287h1.716v1.435h.133a2.7,2.7,0,0,1,2.7-1.609,2.937,2.937,0,0,1,3.126,3.359v5.846H90.557v-5.4c0-1.451-.631-2.173-1.949-2.173a2.072,2.072,0,0,0-2.156,2.289v5.283H84.669Z" transform="translate(13.601 -6.761)" fill="#fff"/>
      <path id="Контур_1604" data-name="Контур 1604" d="M95.129,9.074v2.29h1.957v1.5H95.129v4.644c0,.946.39,1.36,1.277,1.36a5.951,5.951,0,0,0,.68-.041v1.485a5.847,5.847,0,0,1-.969.091c-1.982,0-2.771-.7-2.771-2.438v-5.1H91.911v-1.5h1.434V9.074Z" transform="translate(20.883 -7.797)" fill="#fff"/>
      <path id="Контур_1605" data-name="Контур 1605" d="M95.7,8.437h1.767v4.977h.141a2.779,2.779,0,0,1,2.754-1.618,2.975,2.975,0,0,1,3.11,3.367v5.831h-1.784V15.6c0-1.442-.672-2.173-1.931-2.173a2.11,2.11,0,0,0-2.274,2.29v5.274H95.7Z" transform="translate(24.698 -8.437)" fill="#fff"/>
      <path id="Контур_1606" data-name="Контур 1606" d="M108.834,16.875a3.666,3.666,0,0,1-3.913,2.613,4.1,4.1,0,0,1-4.172-4.661,4.165,4.165,0,0,1,4.164-4.718c2.513,0,4.029,1.717,4.029,4.553v.622h-6.377v.1a2.387,2.387,0,0,0,2.405,2.587,2.165,2.165,0,0,0,2.149-1.095Zm-6.269-2.91h4.562a2.179,2.179,0,0,0-2.223-2.34,2.31,2.31,0,0,0-2.338,2.34Z" transform="translate(29.732 -6.757)" fill="#fff"/>
    </g>
  </g>
</svg>
