<svg id="baseline-exposure-24px" xmlns="http://www.w3.org/2000/svg" xmlns:xlink="http://www.w3.org/1999/xlink" width="199.785" height="199.785" viewBox="0 0 199.785 199.785">
  <defs>
    <linearGradient id="linear-gradient" x1="0.975" y1="0.026" x2="0" y2="1" gradientUnits="objectBoundingBox">
      <stop offset="0" stop-color="#ff634d"/>
      <stop offset="1" stop-color="#a92fff"/>
    </linearGradient>
  </defs>
  <path id="Контур_1582" data-name="Контур 1582" d="M0,0H199.785V199.785H0ZM0,0H199.785V199.785H0ZM0,0H199.785V199.785H0Z" fill="none"/>
  <path id="Контур_1583" data-name="Контур 1583" d="M136.19,3H19.649A16.7,16.7,0,0,0,3,19.649V136.19a16.7,16.7,0,0,0,16.649,16.649H136.19a16.7,16.7,0,0,0,16.649-16.649V19.649A16.7,16.7,0,0,0,136.19,3ZM27.973,36.3H69.6V48.784H27.973ZM136.19,136.19H19.649L136.19,19.649ZM98.73,111.217v16.649h12.487V111.217h16.649V98.73H111.217V82.082H98.73V98.73H82.082v12.487Z" transform="translate(21.973 21.973)" fill="url(#linear-gradient)"/>
</svg>
