<svg id="directions_car-24px" xmlns="http://www.w3.org/2000/svg" width="486" height="367.775" viewBox="0 0 486 367.775">
  <path id="Контур_1443" data-name="Контур 1443" d="M0,0H367.775V367.775H0Z" fill="none"/>
  <path id="Контур_1444" data-name="Контур 1444" d="M246.958,20.477A22.9,22.9,0,0,0,225.2,5H56.634a23.043,23.043,0,0,0-21.76,15.477L3,112.268V234.86a15.369,15.369,0,0,0,15.324,15.324H33.648A15.369,15.369,0,0,0,48.972,234.86V219.536H232.86V234.86a15.369,15.369,0,0,0,15.324,15.324h15.324a15.369,15.369,0,0,0,15.324-15.324V112.268ZM56.634,173.564A22.986,22.986,0,1,1,79.62,150.578,22.955,22.955,0,0,1,56.634,173.564Zm168.564,0a22.986,22.986,0,1,1,22.986-22.986A22.955,22.955,0,0,1,225.2,173.564ZM33.648,96.944,56.634,27.986H225.2l22.986,68.958Z" transform="translate(42.972 71.62)" fill="#f6f6f7"/>
  <g id="Сгруппировать_28" data-name="Сгруппировать 28" transform="translate(0 2.779)">
    <g id="lock-24px" transform="translate(347 111.221)" opacity="0.45">
      <path id="Контур_1447" data-name="Контур 1447" d="M0,0H139V139H0Z" fill="none"/>
      <path id="Контур_1448" data-name="Контур 1448" d="M85.083,41.542H79.292V29.958a28.958,28.958,0,1,0-57.917,0V41.542H15.583A11.617,11.617,0,0,0,4,53.125v57.917a11.617,11.617,0,0,0,11.583,11.583h69.5a11.617,11.617,0,0,0,11.583-11.583V53.125A11.617,11.617,0,0,0,85.083,41.542Zm-16.8,0H32.379V29.958a17.954,17.954,0,0,1,35.908,0Z" transform="translate(19.167 4.792)" fill="#f6f6f7"/>
    </g>
    <g id="electric_car-24px" transform="translate(448.483 163.589) rotate(90)">
      <g id="Сгруппировать_26" data-name="Сгруппировать 26" transform="translate(0 0)">
        <rect id="Прямоугольник_22" data-name="Прямоугольник 22" width="65" height="63" transform="translate(-0.368 0.483)" fill="none"/>
      </g>
      <g id="Сгруппировать_27" data-name="Сгруппировать 27" transform="translate(5.847 18.649)">
        <path id="Контур_1446" data-name="Контур 1446" d="M0,10.59H21.179V0L52.949,15.885H31.769v10.59Z" transform="translate(0)" fill="#4deeff"/>
      </g>
    </g>
  </g>
</svg>
