<svg id="Компонент_5_1" data-name="Компонент 5 – 1" xmlns="http://www.w3.org/2000/svg" width="198.875" height="199" viewBox="0 0 198.875 199">
  <path id="Контур_623" data-name="Контур 623" d="M12.9,13.772C-2.681,29.958.509,47.153.509,99.389c0,43.379-7.569,86.865,32.042,97.1,12.369,3.181,121.965,3.181,134.317-.017,16.492-4.255,29.911-17.632,31.745-40.958.256-3.255.256-108.943-.008-112.264-1.95-24.846-17.244-39.165-37.4-42.065C156.59.518,155.664.32,131.967.279,47.911.32,29.486-3.423,12.9,13.772Z" transform="translate(0.07 0.038)" fill="#1976d2"/>
  <path id="Контур_624" data-name="Контур 624" d="M287.192,159.462H255.462V134.077c0-7.006,5.686-6.346,12.692-6.346h12.692V96H255.462a38.075,38.075,0,0,0-38.077,38.077v25.385H192v31.731h25.385V261h38.077V191.192H274.5Z" transform="translate(-125.042 -62)" fill="#fafafa"/>
</svg>
