<svg id="Сгруппировать_47" data-name="Сгруппировать 47" xmlns="http://www.w3.org/2000/svg" xmlns:xlink="http://www.w3.org/1999/xlink" width="239.996" height="80.224" viewBox="0 0 239.996 80.224">
  <defs>
    <linearGradient id="linear-gradient" x1="0.915" y1="0.044" x2="-0.383" y2="0.722" gradientUnits="objectBoundingBox">
      <stop offset="0" stop-color="#00a0ff"/>
      <stop offset="0.012" stop-color="#00a1ff"/>
      <stop offset="0.259" stop-color="#00beff"/>
      <stop offset="0.51" stop-color="#00d2ff"/>
      <stop offset="0.761" stop-color="#00dfff"/>
      <stop offset="1" stop-color="#00e3ff"/>
    </linearGradient>
    <linearGradient id="linear-gradient-2" x1="1.076" y1="0.491" x2="-1.305" y2="0.491" gradientUnits="objectBoundingBox">
      <stop offset="0" stop-color="#ffe000"/>
      <stop offset="0.412" stop-color="#ffbd00"/>
      <stop offset="0.78" stop-color="orange"/>
      <stop offset="1" stop-color="#ff9c00"/>
    </linearGradient>
    <linearGradient id="linear-gradient-3" x1="0.87" y1="0.178" x2="-0.502" y2="1.948" gradientUnits="objectBoundingBox">
      <stop offset="0" stop-color="#ff3a44"/>
      <stop offset="1" stop-color="#c31162"/>
    </linearGradient>
    <linearGradient id="linear-gradient-4" x1="-0.193" y1="-0.542" x2="0.418" y2="0.249" gradientUnits="objectBoundingBox">
      <stop offset="0" stop-color="#32a071"/>
      <stop offset="0.071" stop-color="#2da771"/>
      <stop offset="0.478" stop-color="#15cf74"/>
      <stop offset="0.8" stop-color="#06e775"/>
      <stop offset="1" stop-color="#00f076"/>
    </linearGradient>
  </defs>
  <g id="Сгруппировать_44" data-name="Сгруппировать 44" transform="translate(0 0)">
    <g id="Сгруппировать_42" data-name="Сгруппировать 42">
      <path id="Контур_1584" data-name="Контур 1584" d="M220.884,0H19.123c-.735,0-1.462,0-2.2,0-.614,0-1.223.016-1.843.025a26.5,26.5,0,0,0-4.019.354A13.367,13.367,0,0,0,7.253,1.642,12.911,12.911,0,0,0,4.006,4.005,12.552,12.552,0,0,0,1.643,7.257,13.239,13.239,0,0,0,.39,11.074,26.058,26.058,0,0,0,.03,15.089C.012,15.7.01,16.321,0,16.936V63.293c.01.623.012,1.226.03,1.849A26.058,26.058,0,0,0,.39,69.157a13.212,13.212,0,0,0,1.253,3.819,12.45,12.45,0,0,0,2.363,3.238,12.584,12.584,0,0,0,3.246,2.364,13.439,13.439,0,0,0,3.812,1.265,26.986,26.986,0,0,0,4.019.355c.62.014,1.229.021,1.843.021.733,0,1.46,0,2.2,0H220.884c.721,0,1.453,0,2.174,0,.611,0,1.238-.008,1.849-.021a26.632,26.632,0,0,0,4.011-.355,13.647,13.647,0,0,0,3.827-1.265,12.591,12.591,0,0,0,3.243-2.364,12.826,12.826,0,0,0,2.37-3.238,13.245,13.245,0,0,0,1.242-3.819,27.086,27.086,0,0,0,.372-4.015c.008-.623.008-1.226.008-1.849C240,62.565,240,61.84,240,61.1V19.126c0-.734,0-1.463-.016-2.19,0-.615,0-1.232-.008-1.847a27.093,27.093,0,0,0-.372-4.015,13.272,13.272,0,0,0-1.242-3.817,12.968,12.968,0,0,0-5.613-5.615A13.574,13.574,0,0,0,228.918.384a26.16,26.16,0,0,0-4.011-.355C224.3.02,223.669.008,223.058,0c-.721,0-1.453,0-2.174,0Z" transform="translate(0 0)"/>
      <path id="Контур_1585" data-name="Контур 1585" d="M16.059,77.588c-.611,0-1.207-.008-1.814-.021A25.444,25.444,0,0,1,10.5,77.24a11.8,11.8,0,0,1-3.323-1.1,10.842,10.842,0,0,1-2.8-2.039,10.671,10.671,0,0,1-2.047-2.8,11.475,11.475,0,0,1-1.089-3.324A24.9,24.9,0,0,1,.9,64.217C.89,63.794.873,62.386.873,62.386V16.056S.891,14.669.9,14.262a24.81,24.81,0,0,1,.332-3.755,11.543,11.543,0,0,1,1.09-3.333A10.777,10.777,0,0,1,4.36,4.37,11.162,11.162,0,0,1,7.173,2.319a11.679,11.679,0,0,1,3.316-1.091A25.242,25.242,0,0,1,14.25.9L16.06.875H222.171L224,.9a24.839,24.839,0,0,1,3.727.326,11.91,11.91,0,0,1,3.351,1.1,11.219,11.219,0,0,1,4.843,4.853A11.557,11.557,0,0,1,237,10.486a26.073,26.073,0,0,1,.349,3.785c.006.568.006,1.178.006,1.785.016.752.016,1.468.016,2.19V60.22c0,.729,0,1.44-.016,2.156,0,.652,0,1.25-.008,1.865A25.529,25.529,0,0,1,237,67.958a11.511,11.511,0,0,1-1.083,3.349,10.991,10.991,0,0,1-2.037,2.779,10.855,10.855,0,0,1-2.807,2.051,11.757,11.757,0,0,1-3.345,1.1,25.154,25.154,0,0,1-3.749.327c-.587.014-1.2.021-1.8.021l-2.174,0Z" transform="translate(0.878 0.88)"/>
    </g>
  </g>
  <path id="Контур_1643" data-name="Контур 1643" d="M9588.241,14392.61a4.773,4.773,0,0,1-1.315,3.53,5.121,5.121,0,0,1-3.883,1.563,5.522,5.522,0,1,1,0-11.044,5.459,5.459,0,0,1,2.17.443,4.332,4.332,0,0,1,1.653,1.181l-.93.929a3.569,3.569,0,0,0-2.894-1.252,4.222,4.222,0,1,0,2.952,7.265,3.324,3.324,0,0,0,.887-2.144h-3.839v-1.268h5.123A4.552,4.552,0,0,1,9588.241,14392.61Z" transform="translate(-9501.224 -14370.524)" fill="#fff"/>
  <path id="Контур_1644" data-name="Контур 1644" d="M9836.772,14392.688h-4.815v3.353h4.341v1.27h-4.341v3.354h4.815v1.3H9830.6v-10.571h6.172Z" transform="translate(-9741.616 -14375.019)" fill="#fff"/>
  <path id="Контур_1645" data-name="Контур 1645" d="M9986.851,14401.962h-1.36v-9.273h-2.95v-1.3h7.265v1.3h-2.954Z" transform="translate(-9885.953 -14375.019)" fill="#fff"/>
  <path id="Контур_1646" data-name="Контур 1646" d="M10233.23,14391.391h1.359v10.571h-1.359Z" transform="translate(-10124.106 -14375.019)" fill="#fff"/>
  <path id="Контур_1647" data-name="Контур 1647" d="M10299.031,14401.962h-1.359v-9.273h-2.952v-1.3h7.265v1.3h-2.953Z" transform="translate(-10182.516 -14375.019)" fill="#fff"/>
  <path id="Контур_1648" data-name="Контур 1648" d="M10531.7,14395.216a4.066,4.066,0,0,0,5.743,0,4.5,4.5,0,0,0,0-6.067,4.063,4.063,0,0,0-5.743,0,4.51,4.51,0,0,0,0,6.067Zm6.748.887a5.49,5.49,0,0,1-7.751,0,5.713,5.713,0,0,1,0-7.841,5.471,5.471,0,0,1,7.744.007,5.695,5.695,0,0,1,.007,7.834Z" transform="translate(-10405.205 -14370.524)" fill="#fff"/>
  <path id="Контур_1649" data-name="Контур 1649" d="M10784.87,14401.962v-10.571h1.654l5.138,8.223h.059l-.059-2.036v-6.187h1.359v10.571h-1.418l-5.374-8.623h-.061l.061,2.039v6.584Z" transform="translate(-10648.143 -14375.019)" fill="#fff"/>
  <path id="Контур_1650" data-name="Контур 1650" d="M9682.727,14768.653h3.289v-22.027h-3.289Zm29.615-14.093-3.769,9.55h-.111l-3.913-9.55h-3.542l5.865,13.348-3.344,7.426h3.432l9.039-20.773Zm-18.645,11.592c-1.078,0-2.58-.538-2.58-1.87,0-1.7,1.871-2.354,3.485-2.354a5.857,5.857,0,0,1,3,.737A3.986,3.986,0,0,1,9693.7,14766.152Zm.4-12.073a6.17,6.17,0,0,0-5.865,3.373l2.918,1.218a3.118,3.118,0,0,1,3-1.616c1.7,0,3.428,1.021,3.457,2.835v.226a7.276,7.276,0,0,0-3.429-.849c-3.146,0-6.349,1.728-6.349,4.959,0,2.946,2.579,4.847,5.469,4.847a4.64,4.64,0,0,0,4.2-2.155h.112v1.7h3.173v-8.443C9700.779,14756.261,9697.862,14754.079,9694.093,14754.079Zm-20.32,3.163H9669.1v-7.55h4.677a3.776,3.776,0,1,1,0,7.55Zm-.084-10.616h-7.878v22.027h3.285v-8.345h4.593a6.852,6.852,0,1,0,0-13.683Zm-42.961,19.528a4.558,4.558,0,0,1,0-9.083c2.243,0,4,1.931,4,4.571C9634.729,14764.254,9632.971,14766.154,9630.728,14766.154Zm3.774-10.359h-.112a5.192,5.192,0,0,0-3.944-1.675,7.5,7.5,0,0,0,0,14.988,5.106,5.106,0,0,0,3.944-1.7h.112v1.079c0,2.868-1.531,4.4-4,4.4a4.147,4.147,0,0,1-3.775-2.669l-2.867,1.192a7.143,7.143,0,0,0,6.643,4.43c3.861,0,7.126-2.272,7.126-7.807v-13.458H9634.5Zm5.4,12.858h3.293v-22.029H9639.9Zm8.145-7.267a4.113,4.113,0,0,1,3.918-4.372,2.9,2.9,0,0,1,2.781,1.591Zm10.221-2.5a6.964,6.964,0,0,0-6.416-4.769,7.121,7.121,0,0,0-7.067,7.494,7.333,7.333,0,0,0,7.437,7.494,7.458,7.458,0,0,0,6.246-3.321l-2.556-1.705a4.277,4.277,0,0,1-3.69,2.072,3.811,3.811,0,0,1-3.634-2.27l10.021-4.145Zm-79.835-2.47v3.181h7.606a6.647,6.647,0,0,1-1.73,4,7.8,7.8,0,0,1-5.876,2.325,8.46,8.46,0,0,1,0-16.918,8.1,8.1,0,0,1,5.733,2.272l2.244-2.243a11.092,11.092,0,0,0-7.978-3.209,11.64,11.64,0,1,0,0,23.278,10.635,10.635,0,0,0,8.117-3.265,10.508,10.508,0,0,0,2.754-7.438,10.228,10.228,0,0,0-.171-1.986Zm19.521,9.735a4.553,4.553,0,1,1,4.229-4.54A4.334,4.334,0,0,1,9597.95,14766.154Zm0-12.034a7.494,7.494,0,1,0,7.522,7.494A7.387,7.387,0,0,0,9597.95,14754.12Zm16.41,12.034a4.553,4.553,0,1,1,4.229-4.54A4.335,4.335,0,0,1,9614.36,14766.154Zm0-12.034a7.494,7.494,0,1,0,7.523,7.494A7.387,7.387,0,0,0,9614.36,14754.12Z" transform="translate(-9490.58 -14711.664)" fill="#fff"/>
  <path id="Контур_1651" data-name="Контур 1651" d="M8470.57,14415.238v.326a3.416,3.416,0,0,1,.945-2.615l21.829,21.891-21.827,21.887-.133-.129a3.5,3.5,0,0,1-.814-2.428v-38.932Zm0-.324c0-.08,0-.156.007-.23C8470.573,14414.758,8470.57,14414.834,8470.57,14414.914Zm.007-.236v0Zm0-.012Z" transform="translate(-8449.656 -14395.524)" fill-rule="evenodd" fill="url(#linear-gradient)"/>
  <path id="Контур_1652" data-name="Контур 1652" d="M8933.817,14719.116h0l.165-.094,8.622-4.9a3.778,3.778,0,0,0,1.642-1.634,3.767,3.767,0,0,1-1.642,1.634l-8.622,4.9Zm10.634-7.534v0a3.281,3.281,0,0,0-1.847-2.285l-8.785-4.992-7.279,7.279,7.279,7.278h0l8.785-4.991A3.284,3.284,0,0,0,8944.451,14711.582Z" transform="translate(-8882.782 -14672.266)" fill-rule="evenodd" fill="url(#linear-gradient-2)"/>
  <path id="Контур_1653" data-name="Контур 1653" d="M8487.02,14872.7h0a2.266,2.266,0,0,1-1.529-.573h0A2.261,2.261,0,0,0,8487.02,14872.7Zm0,0h.093l.1,0-.1,0h-.093Zm-.064-.257a2.274,2.274,0,0,1-1.557-.573l21.829-21.829,7.279,7.277-25.577,14.532A4.058,4.058,0,0,1,8486.956,14872.443Zm-1.563-.32c-.038-.035-.076-.071-.112-.11l.112.11Z" transform="translate(-8463.632 -14810.7)" fill-rule="evenodd" fill="url(#linear-gradient-3)"/>
  <path id="Контур_1654" data-name="Контур 1654" d="M8511.311,14419.02h0l-21.83-21.832a2.269,2.269,0,0,1,1.556-.57,4.078,4.078,0,0,1,1.978.592l25.576,14.532Zm7.443-7.441-25.74-14.626a4.066,4.066,0,0,0-1.978-.593h0a4.06,4.06,0,0,1,1.976.593Zm-27.732-15.219Z" transform="translate(-8467.622 -14379.732)" fill-rule="evenodd" fill="url(#linear-gradient-4)"/>
</svg>
