<svg xmlns="http://www.w3.org/2000/svg" xmlns:xlink="http://www.w3.org/1999/xlink" width="198.875" height="198.913" viewBox="0 0 198.875 198.913">
  <defs>
    <linearGradient id="linear-gradient" x1="-0.086" y1="1.075" x2="0.925" y2="0.089" gradientUnits="objectBoundingBox">
      <stop offset="0" stop-color="#ff634d"/>
      <stop offset="0.364" stop-color="#ff9400"/>
      <stop offset="1" stop-color="#a92fff"/>
    </linearGradient>
  </defs>
  <g id="instagram" transform="translate(0.07 0.038)">
    <path id="Контур_621" data-name="Контур 621" d="M12.9,13.772C-2.681,29.958.509,47.153.509,99.389c0,43.379-7.569,86.865,32.042,97.1,12.369,3.181,121.965,3.181,134.317-.017,16.492-4.255,29.911-17.632,31.745-40.958.256-3.255.256-108.943-.008-112.264-1.95-24.846-17.244-39.165-37.4-42.065C156.59.518,155.664.32,131.967.279,47.911.32,29.486-3.423,12.9,13.772Z" transform="translate(0 0)" fill="url(#linear-gradient)"/>
    <path id="Контур_622" data-name="Контур 622" d="M76.381,3.2C46.38,3.2,17.89.532,7.008,28.46,2.513,39.995,3.166,54.975,3.166,76.424c0,18.822-.6,36.513,3.842,47.956,10.857,27.944,39.578,25.267,69.356,25.267,28.729,0,58.351,2.991,69.365-25.267,4.5-11.65,3.842-26.407,3.842-47.956,0-28.605,1.578-47.072-12.295-60.937C123.23,1.441,104.234,3.2,76.348,3.2ZM69.821,16.4c62.581-.1,70.546-7.056,66.151,89.592-1.562,34.182-27.589,30.431-59.582,30.431-58.334,0-60.011-1.669-60.011-60.028,0-59.036,4.627-59.962,53.443-60.011Zm45.643,12.154a8.783,8.783,0,1,0,8.783,8.783A8.784,8.784,0,0,0,115.463,28.551ZM76.381,38.821a37.6,37.6,0,1,0,37.587,37.6,37.6,37.6,0,0,0-37.587-37.6Zm0,13.2c32.266,0,32.307,48.816,0,48.816C44.124,100.832,44.074,52.017,76.381,52.017Z" transform="translate(23.262 23.014)" fill="#fff"/>
  </g>
</svg>
