<svg id="Компонент_4_1" data-name="Компонент 4 – 1" xmlns="http://www.w3.org/2000/svg" width="198.875" height="198.913" viewBox="0 0 198.875 198.913">
  <path id="Контур_625" data-name="Контур 625" d="M12.9,13.772C-2.681,29.958.509,47.153.509,99.389c0,43.379-7.569,86.865,32.042,97.1,12.369,3.181,121.965,3.181,134.317-.017,16.492-4.255,29.911-17.632,31.745-40.958.256-3.255.256-108.943-.008-112.264-1.95-24.846-17.244-39.165-37.4-42.065C156.59.518,155.664.32,131.967.279,47.911.32,29.486-3.423,12.9,13.772Z" transform="translate(0.07 0.038)" fill="#0f77b5"/>
  <g id="linkedin" transform="translate(49.806 47.192)">
    <path id="Контур_616" data-name="Контур 616" d="M76.2,79.306v0h.026V40.864c0-18.8-4.048-33.29-26.032-33.29-10.568,0-17.66,5.8-20.555,11.3h-.306V9.33H8.489V79.3h21.7V44.654c0-9.123,1.729-17.944,13.027-17.944,11.131,0,11.3,10.411,11.3,18.529V79.306Z" transform="translate(28.582 25.502)" fill="#f6f6f7"/>
    <path id="Контур_617" data-name="Контур 617" d="M.4,7.977h21.73V77.949H.4Z" transform="translate(1.333 26.859)" fill="#f6f6f7"/>
    <path id="Контур_618" data-name="Контур 618" d="M12.586,0A12.645,12.645,0,1,0,25.171,12.586,12.59,12.59,0,0,0,12.586,0Z" fill="#f6f6f7"/>
  </g>
</svg>
