<svg xmlns="http://www.w3.org/2000/svg" xmlns:xlink="http://www.w3.org/1999/xlink" width="200.218" height="199.991" viewBox="0 0 200.218 199.991">
  <defs>
    <linearGradient id="linear-gradient" x1="0.5" x2="0.5" y2="1" gradientUnits="objectBoundingBox">
      <stop offset="0" stop-color="#a92fff"/>
      <stop offset="1" stop-color="#4deeff"/>
    </linearGradient>
  </defs>
  <g id="queue_play_next-24px" transform="translate(0 -0.22)">
    <g id="Сгруппировать_32" data-name="Сгруппировать 32" transform="translate(0 0.22)">
      <rect id="Прямоугольник_42" data-name="Прямоугольник 42" width="199.991" height="199.991" fill="none"/>
    </g>
    <g id="Сгруппировать_35" data-name="Сгруппировать 35" transform="translate(8.342 25.02)">
      <g id="Сгруппировать_34" data-name="Сгруппировать 34">
        <g id="Сгруппировать_33" data-name="Сгруппировать 33">
          <path id="Контур_1471" data-name="Контур 1471" d="M167.848,3H17.685A16.627,16.627,0,0,0,1,19.685V119.794a16.68,16.68,0,0,0,16.685,16.685H59.4v16.685h66.739V136.479h16.685V119.794H17.685V19.685H167.848V86.424h16.685V19.685A16.68,16.68,0,0,0,167.848,3ZM101.109,61.4V36.37H84.424V61.4H59.4V78.082H84.424v25.027h16.685V78.082h25.027V61.4Zm91.766,66.739-37.541,37.541-12.514-12.514,25.027-25.027-25.027-25.027L155.335,90.6Z" transform="translate(-1 -3)" fill="url(#linear-gradient)"/>
        </g>
      </g>
    </g>
  </g>
</svg>
